<?xml version="1.0" encoding="utf-8" ?>
<svg baseProfile="full" height="200mm" version="1.1" viewBox="0,0,200,200" width="200mm" xmlns="http://www.w3.org/2000/svg" xmlns:ev="http://www.w3.org/2001/xml-events" xmlns:xlink="http://www.w3.org/1999/xlink"><defs /><rect fill="#1a1a1a" height="200" width="200" x="0" y="0" /><text alignment-baseline="middle" fill="#e1ed5e" style="dominant-baseline: central; font-size:9.0px; font-family:Arial;" text-anchor="middle" x="100.0" y="100.0">2024</text><line stroke="#e1ed5e" stroke-width="0.3" x1="100.0" x2="100.0" y1="15.0" y2="10.0" /><path d="M 100.0 14.0 a86.0,86.0 0 0,1 42.35913384403234,11.155469271406648" fill="none" id="id1" stroke="none" /><text fill="#e1ed5e" style="font-size:6.75px; font-family:Arial;" text-anchor="middle"><textPath startOffset="22.145653131862478" xlink:href="#id1">January</textPath></text><line stroke="#e1ed5e" stroke-width="0.3" x1="143.13028292997686" x2="145.6673583964461" y1="26.7553504044142" y2="22.446841604673864" /><path d="M 143.63769802327073 25.89364864446614 a86.0,86.0 0 0,1 29.32050498858742,28.57503671076993" fill="none" id="id2" stroke="none" /><text fill="#e1ed5e" style="font-size:6.75px; font-family:Arial;" text-anchor="middle"><textPath startOffset="20.669276256404974" xlink:href="#id2">February</textPath></text><line stroke="#e1ed5e" stroke-width="0.3" x1="172.87174338648825" x2="177.1583165268699" y1="56.24261187166439" y2="53.66864786411523" /><path d="M 173.72905801456457 55.72781907015455 a86.0,86.0 0 0,1 12.242430191666344,42.057860355516425" fill="none" id="id3" stroke="none" /><text fill="#e1ed5e" style="font-size:6.75px; font-family:Arial;" text-anchor="middle"><textPath startOffset="22.145653131862474" xlink:href="#id3">March</textPath></text><path d="M 118.8641267826498 90.77261029715802 l 11.946155422286285 -5.843463246522465 a34.29874776386404,34.29874776386404 0 0,0 0.25417126562182535,0.531120188934813 l -12.044705945868023 5.637530555522549" fill="red" stroke="none" /><path d="M 119.0197475246899 91.09779779509293 l 20.414755840454276 -9.555136534783982 a43.540250447227194,43.540250447227194 0 0,0 0.31103399862789877,0.6796654197015761 l -20.575774303937227 9.203282132867722" fill="red" stroke="none" /><path d="M 119.58574465831526 92.42381321644754 l 16.81781294452832 -6.505491334714092 a39.032200357781754,39.032200357781754 0 0,0 0.23636658231985008,0.6269904416427015 l -16.92701021066261 6.215832612877233" fill="red" stroke="none" /><path d="M 119.71291397450082 92.76114493625339 l 17.773360721195743 -6.526624243521096 a39.933810375670845,39.933810375670845 0 0,0 0.23077906841375376,0.6455301276692048 l -17.88277995965344 6.220559159470974" fill="red" stroke="none" /><path d="M 119.83427380445688 93.10060997987247 l 19.053676266535504 -6.627857675864905 a41.173524150268335,41.173524150268335 0 0,0 0.22648296593325218,0.6695566453959192 l -19.164644654041123 6.299799355994824" fill="red" stroke="none" /><path d="M 119.94978838288452 93.4421083053983 l 21.52007584057132 -7.074076371815418 a43.65295169946333,43.65295169946333 0 0,0 0.22790017936820603,0.7138940659223763 l -21.63834073571678 6.703613272201655" fill="red" stroke="none" /><path d="M 120.26092885502905 94.47779374421319 l 20.9858279196097 -5.719780719321224 a42.75134168157424,42.75134168157424 0 0,0 0.18690585124189077,0.7097119606865031 l -21.080923251656323 5.3586882542619225" fill="red" stroke="none" /><path d="M 120.51834098615036 95.52812308129327 l 30.942685959436062 -6.7438143872446785 a52.6690518783542,52.6690518783542 0 0,0 0.1849493549628582,0.8850496159174651 l -31.05389302522329 6.2116483200418084" fill="red" stroke="none" /><path d="M 120.592083275326 95.88100663000786 l 21.218318365988864 -4.244257926861307 a42.6386404293381,42.6386404293381 0 0,0 0.13740547094767783,0.7189634860235922 l -21.2880501292187 3.8793918758044006" fill="red" stroke="none" /><path d="M 120.7213421655516 96.59031103205396 l 22.241154381629638 -3.659773489745307 a43.540250447227194,43.540250447227194 0 0,0 0.11502610127325696,0.7385500843317704 l -22.300701975041157 3.277435223482095" fill="red" stroke="none" /><path d="M 120.86939407059847 97.66154086499901 l 23.632068777618656 -2.648022598310595 a44.779964221824685,44.779964221824685 0 0,0 0.07904219706950634,0.7646615553465934 l -23.67404336716983 2.24195652068107" fill="red" stroke="none" /><path d="M 120.93736805541906 98.37931529534042 l 22.585389870156877 -1.7482520159386852 a43.65295169946333,43.65295169946333 0 0,0 0.05141910040463902,0.7476224349421534 l -22.612072931726583 1.3602861568421978" fill="red" stroke="none" /><line stroke="#e1ed5e" stroke-width="0.3" x1="184.99686870605535" x2="189.99668451229388" y1="99.2704041080226" y2="99.22748670261217" /><path d="M 185.99683186730306 99.26182062694052 a86.0,86.0 0 0,1 -10.086455211305974,41.156179273409016" fill="none" id="id4" stroke="none" /><text fill="#e1ed5e" style="font-size:6.75px; font-family:Arial;" text-anchor="middle"><textPath startOffset="21.40746469413373" xlink:href="#id4">April</textPath></text><path d="M 120.99922638620191 99.81974689727618 l 22.652117192987035 -0.1944411823657753 a43.65295169946333,43.65295169946333 0 0,0 0.0,0.7493885701792016 l -22.652117192987035 -0.19444118236577254" fill="red" stroke="none" /><path d="M 120.99303781780057 100.54070618675476 l 21.969458181419213 0.5658553117200922 a42.97674418604652,42.97674418604652 0 0,0 -0.02532622195994348,0.7373453190315875 l -21.956507272462424 -0.9429068953157903" fill="red" stroke="none" /><path d="M 120.7213421655516 103.40968896794604 l 20.573067803007408 3.385290478014401 a41.84973166368515,41.84973166368515 0 0,0 -0.12272968392424143,0.7078722027307065 l -20.511923301590933 -3.7379557136656953" fill="red" stroke="none" /><path d="M 120.592083275326 104.11899336999214 l 22.2129270393946 4.443207517182929 a43.65295169946333,43.65295169946333 0 0,0 -0.15328898036151786,0.7335432622653929 l -22.133380348208718 -4.823867230733731" fill="red" stroke="none" /><path d="M 120.35273937422433 105.17358676015961 l 11.359668487939159 2.8875833079960604 a32.72093023255814,32.72093023255814 0 0,0 -0.1430535996763505,0.5431978187679577 l -11.308425407458078 -3.0821616311368216" fill="red" stroke="none" /><path d="M 119.83427380445688 106.89939002012753 l 18.627895791305665 6.479749124448932 a40.72271914132379,40.72271914132379 0 0,0 -0.23533820334949113,0.6582828395046174 l -18.51391741791223 -6.798566920334471" fill="red" stroke="none" /><path d="M 119.4528033332814 107.91128576633889 l 28.396220965934912 11.548495859271073 a51.65474060822898,51.65474060822898 0 0,0 -0.34110369188252665,0.8185246860791466 l -28.1937914295159 -12.034253054791497" fill="red" stroke="none" /><path d="M 119.0197475246899 108.90220220490707 l 16.944247347577054 7.930763323870704 a39.708407871198574,39.708407871198574 0 0,0 -0.29425961419744734,0.6148894191720673 l -16.805608475419696 -8.220465245107876" fill="red" stroke="none" /><path d="M 118.5362547648365 109.86951160357373 l 18.00570006673742 9.587021110448175 a41.398926654740606,41.398926654740606 0 0,0 -0.33938179735938545,0.6244242817727855 l -17.838472919762694 -9.894700225695564" fill="red" stroke="none" /><line stroke="#e1ed5e" stroke-width="0.3" x1="174.33088141563837" x2="178.70328620479359" y1="141.23008692659167" y2="143.65538615756765" /><path d="M 175.20536237346943 141.71514677278685 a86.0,86.0 0 0,1 -30.301960400862466,31.631185727798858" fill="none" id="id5" stroke="none" /><text fill="#e1ed5e" style="font-size:6.75px; font-family:Arial;" text-anchor="middle"><textPath startOffset="22.145653131862474" xlink:href="#id5">May</textPath></text><path d="M 117.423217284605 111.72311816256416 l 21.225779912014325 14.281652001263312 a46.583184257602866,46.583184257602866 0 0,0 -0.4521014782629746,0.6596295680020491 l -20.977488696936028 -14.643916304335406" fill="red" stroke="none" /><path d="M 116.79662413953412 112.60449989151573 l 18.65957708524272 14.002494512757188 a44.32915921288014,44.32915921288014 0 0,0 -0.4619689923469066,0.6047322403859835 l -18.41645611554151 -14.32074766638405" fill="red" stroke="none" /><line stroke="#e1ed5e" stroke-width="0.3" x1="143.1302829299769" x2="145.66735839644613" y1="173.24464959558577" y2="177.55315839532614" /><path d="M 143.63769802327073 174.10635135553383 a86.0,86.0 0 0,1 -40.68552437913181,11.842963189579606" fill="none" id="id6" stroke="none" /><text fill="#e1ed5e" style="font-size:6.75px; font-family:Arial;" text-anchor="middle"><textPath startOffset="21.407464694133747" xlink:href="#id6">June</textPath></text><line stroke="#e1ed5e" stroke-width="0.3" x1="101.45913802915013" x2="101.54496967792366" y1="184.9874750549273" y2="189.98673829345242" /><path d="M 101.47630435890484 185.9873277026323 a86.0,86.0 0 0,1 -42.54439059252881,-10.42667462771756" fill="none" id="id7" stroke="none" /><text fill="#e1ed5e" style="font-size:6.75px; font-family:Arial;" text-anchor="middle"><textPath startOffset="22.145653131862474" xlink:href="#id7">July</textPath></text><line stroke="#e1ed5e" stroke-width="0.3" x1="58.13341422392154" x2="55.67067388415222" y1="173.97424548756322" y2="178.32567169271397" /><path d="M 57.64086615596768 174.84453072859336 a86.0,86.0 0 0,1 -31.369924170532247,-30.572349798747897" fill="none" id="id8" stroke="none" /><text fill="#e1ed5e" style="font-size:6.75px; font-family:Arial;" text-anchor="middle"><textPath startOffset="22.145653131862474" xlink:href="#id8">August</textPath></text><line stroke="#e1ed5e" stroke-width="0.3" x1="26.387840678322732" x2="22.057713659400548" y1="142.50000000000003" y2="145.00000000000006" /><path d="M 25.521815274538298 143.00000000000003 a86.0,86.0 0 0,1 -11.493303480769221,-40.785679425670985" fill="none" id="id9" stroke="none" /><text fill="#e1ed5e" style="font-size:6.75px; font-family:Arial;" text-anchor="middle"><textPath startOffset="21.40746469413373" xlink:href="#id9">September</textPath></text><path d="M 79.94057633289273 106.21446072829308 l -21.100073553236268 6.53685672314192 a43.08944543828265,43.08944543828265 0 0,0 -0.21282837380292807,-0.7084364377127732 l 21.209178247042825 -6.173682681838423" fill="red" stroke="none" /><path d="M 79.56144815229197 104.8234425847677 l -61.3156555431241 14.470327754303112 a84.0,84.0 0 0,0 -0.3191565537693344,-1.406262664243895 l 61.555022958451104 -13.41563075612019" fill="red" stroke="none" /><path d="M 79.2786578344484 103.40968896794605 l -24.02044673216 3.9525553689249335 a45.34347048300536,45.34347048300536 0 0,0 -0.11978990874617368,-0.7691371456328082 l 24.084758133044442 -3.539630041360675" fill="red" stroke="none" /><line stroke="#e1ed5e" stroke-width="0.3" x1="15.003131293944662" x2="10.003315487706104" y1="100.72959589197737" y2="100.7725132973878" /><path d="M 14.003168132696942 100.73817937305945 a86.0,86.0 0 0,1 10.791469493833604,-42.45332614584628" fill="none" id="id10" stroke="none" /><text fill="#e1ed5e" style="font-size:6.75px; font-family:Arial;" text-anchor="middle"><textPath startOffset="22.145653131862435" xlink:href="#id10">October</textPath></text><path d="M 79.00696218219943 99.45929381324524 l -22.532777621968417 -0.5803644222770248 a43.540250447227194,43.540250447227194 0 0,0 0.02565829654856943,-0.7470133083544963 l 22.519494638422998 0.9670839951956596" fill="red" stroke="none" /><path d="M 79.01933749520258 99.09900007780938 l -22.632092111615112 -0.9719194151716379 a43.65295169946333,43.65295169946333 0 0,0 0.03857759043195933,-0.7483949482938473 l 22.612072931726583 1.3602861568421973" fill="red" stroke="none" /><path d="M 80.41425534168474 92.42381321644754 l -22.178490820596714 -8.57911669765421 a44.779964221824685,44.779964221824685 0 0,0 0.28348132279136196,-0.7145581171402671 l 22.02795082283922 8.95857583200806" fill="red" stroke="none" /><path d="M 80.9802524753101 91.09779779509293 l -28.58065817663599 -13.377191148697566 a52.55635062611807,52.55635062611807 0 0,0 0.38946944206456696,-0.8138413409855868 l 28.346809476611515 13.86584499174824" fill="red" stroke="none" /><path d="M 81.1358732173502 90.77261029715801 l -19.539050817807222 -9.55752886931218 a42.75134168157424,42.75134168157424 0 0,0 0.3281269029785963,-0.6564736094555088 l 19.372104001616883 9.891534334931459" fill="red" stroke="none" /><path d="M 81.46374523516351 90.13048839642627 l -22.283297320161218 -11.864600711272887 a46.24508050089445,46.24508050089445 0 0,0 0.3791097936019739,-0.6975193202016874 l 22.076342176943893 12.245374864949195" fill="red" stroke="none" /><line stroke="#e1ed5e" stroke-width="0.3" x1="26.387840678322718" x2="22.05771365940052" y1="57.49999999999999" y2="54.99999999999999" /><path d="M 25.521815274538284 56.99999999999999 a86.0,86.0 0 0,1 29.574782752854787,-30.34633250058573" fill="none" id="id11" stroke="none" /><text fill="#e1ed5e" style="font-size:6.75px; font-family:Arial;" text-anchor="middle"><textPath startOffset="21.40746469413373" xlink:href="#id11">November</textPath></text><path d="M 83.8745106332314 86.54754324733833 l -17.740923006373333 -14.800108949708283 a44.10375670840787,44.10375670840787 0 0,0 0.4899831528491012,-0.5771989220111279 l 17.484245290017114 15.102474654168967" fill="red" stroke="none" /><line stroke="#e1ed5e" stroke-width="0.3" x1="56.869717070023135" x2="54.33264160355391" y1="26.7553504044142" y2="22.446841604673864" /><path d="M 56.362301976729285 25.89364864446614 a86.0,86.0 0 0,1 42.16139366436587,-11.88097634709845" fill="none" id="id12" stroke="none" /><text fill="#e1ed5e" style="font-size:6.75px; font-family:Arial;" text-anchor="middle"><textPath startOffset="22.145653131862474" xlink:href="#id12">December</textPath></text></svg>