<?xml version="1.0" encoding="utf-8" ?>
<svg baseProfile="full" height="200mm" version="1.1" viewBox="0,0,200,200" width="200mm" xmlns="http://www.w3.org/2000/svg" xmlns:ev="http://www.w3.org/2001/xml-events" xmlns:xlink="http://www.w3.org/1999/xlink"><defs /><rect fill="#1a1a1a" height="200" width="200" x="0" y="0" /><text alignment-baseline="middle" fill="#e1ed5e" style="dominant-baseline: central; font-size:9.0px; font-family:Arial;" text-anchor="middle" x="100.0" y="100.0">2025</text><line stroke="#e1ed5e" stroke-width="0.3" x1="100.0" x2="100.0" y1="15.0" y2="10.0" /><path d="M 100.0 14.0 a86.0,86.0 0 0,1 42.46469731375804,11.215312516191453" fill="none" id="id13" stroke="none" /><text fill="#e1ed5e" style="font-size:6.75px; font-family:Arial;" text-anchor="middle"><textPath startOffset="22.20632615414155" xlink:href="#id13">January</textPath></text><line stroke="#e1ed5e" stroke-width="0.3" x1="143.23703022742887" x2="145.7803849466894" y1="26.81831364943548" y2="22.513508569990506" /><path d="M 143.74570117128098 25.957352633546492 a86.0,86.0 0 0,1 28.547481713284135,27.462654790039103" fill="none" id="id14" stroke="none" /><text fill="#e1ed5e" style="font-size:6.75px; font-family:Arial;" text-anchor="middle"><textPath startOffset="19.985693538727396" xlink:href="#id14">February</textPath></text><line stroke="#e1ed5e" stroke-width="0.3" x1="172.23445277983987" x2="176.4835382374775" y1="55.19839476539836" y2="52.563006222186495" /><path d="M 173.08426987136738 54.67131705675599 a86.0,86.0 0 0,1 12.851231095245387,41.99856678651699" fill="none" id="id15" stroke="none" /><text fill="#e1ed5e" style="font-size:6.75px; font-family:Arial;" text-anchor="middle"><textPath startOffset="22.20632615414155" xlink:href="#id15">March</textPath></text><path d="M 118.73160827565052 90.50648371742162 l 43.36073891879468 -21.97600306885085 a69.61171042522591,69.61171042522591 0 0,0 0.5324963933809236,1.0734802356855762 l -43.73259532512901 21.226363244666327" fill="red" stroke="none" /><path d="M 118.89224826269711 90.83032412892265 l 32.43635299022484 -15.74353879032447 a57.055180057086375,57.055180057086375 0 0,0 0.4212351507968802,0.8872286559350544 l -32.70254633486347 15.182867718748875" fill="red" stroke="none" /><path d="M 119.34039704204932 91.81776055985345 l 33.20578560602996 -14.048196013556066 a57.055180057086375,57.055180057086375 0 0,0 0.37487511898481185,0.9077898354494343 l -33.44268241190097 13.474531607653327" fill="red" stroke="none" /><path d="M 119.61058180528143 92.48833698450437 l 35.34477736102318 -13.538509949879334 a58.84897010967774,58.84897010967774 0 0,0 0.3542018949175368,0.9490849802761995 l -35.57258384444235 12.928101832573802" fill="red" stroke="none" /><path d="M 120.67395015179393 96.31383870115 l 47.150580365359 -8.406939326300986 a68.89419440418936,68.89419440418936 0 0,0 0.19811391200632683,1.169279523246884 l -47.28830613888555 7.594074014738264" fill="red" stroke="none" /><line stroke="#e1ed5e" stroke-width="0.3" x1="184.98032266829074" x2="189.97916517819016" y1="98.17113171792111" y2="98.06355123074" /><path d="M 185.9800911702706 98.14961562048488 a86.0,86.0 0 0,1 -9.607161424134198,41.387399972396054" fill="none" id="id16" stroke="none" /><text fill="#e1ed5e" style="font-size:6.75px; font-family:Arial;" text-anchor="middle"><textPath startOffset="21.466115282336823" xlink:href="#id16">April</textPath></text><path d="M 120.99824983174949 100.27111621757518 l 42.32991711488015 0.5465373119384989 a63.333445241156134,63.333445241156134 0 0,0 -0.023457312715629775,1.0899691481549005 l -42.314237739479516 -1.2750962758835143" fill="red" stroke="none" /><path d="M 120.9764740272857 100.99374915477107 l 37.44821239883099 1.7740888850346497 a58.490212099159464,58.490212099159464 0 0,0 -0.05630002970887608,1.0052748506726992 l -37.41212601823459 -2.418435452042772" fill="red" stroke="none" /><path d="M 120.92983693683757 101.71520430193887 l 35.75593647586524 2.9302061095046255 a56.87580105182724,56.87580105182724 0 0,0 -0.08836171292288604,0.9750641390412663 l -35.700200166665276 -3.5452516370944624" fill="red" stroke="none" /><path d="M 120.8583938346157 102.4346265915055 l 50.42194744152075 5.885333981607664 a71.76425848833554,71.76425848833554 0 0,0 -0.15377539628543657,1.225741209356956 l -50.31317053598847 -6.752392945252015" fill="red" stroke="none" /><path d="M 120.13307415673323 105.97154293290107 l 34.91069121208454 10.354637834604857 a57.41393806760465,57.41393806760465 0 0,0 -0.28918369202588357,0.9450690375970282 l -34.72728074755252 -10.954033844753942" fill="red" stroke="none" /><path d="M 120.02730092923936 106.31721596034902 l 39.51725050583562 12.46493506472 a62.43655021486045,62.43655021486045 0 0,0 -0.33212602280062486,1.0221787926409833 l -39.29683223201875 -13.14331275733878" fill="red" stroke="none" /><line stroke="#e1ed5e" stroke-width="0.3" x1="174.80103733775053" x2="179.2010983576182" y1="140.37084112569926" y2="142.7455964860345" /><path d="M 175.68104954172406 140.8457921977663 a86.0,86.0 0 0,1 -30.038265399797805,32.042727171017184" fill="none" id="id17" stroke="none" /><text fill="#e1ed5e" style="font-size:6.75px; font-family:Arial;" text-anchor="middle"><textPath startOffset="22.206326154141568" xlink:href="#id17">May</textPath></text><line stroke="#e1ed5e" stroke-width="0.3" x1="143.8653032363475" x2="146.44561519142675" y1="172.8068346515853" y2="177.08958963109032" /><path d="M 144.38136562736335 173.6633856474863 a86.0,86.0 0 0,1 -40.68145358897372,12.25698825130547" fill="none" id="id18" stroke="none" /><text fill="#e1ed5e" style="font-size:6.75px; font-family:Arial;" text-anchor="middle"><textPath startOffset="21.466115282336833" xlink:href="#id18">June</textPath></text><line stroke="#e1ed5e" stroke-width="0.3" x1="102.19456741930631" x2="102.32365962044197" y1="184.97166512339345" y2="189.96999836594603" /><path d="M 102.22038585953345 185.97133177190398 a86.0,86.0 0 0,1 -42.740103519485714,-10.115201625700543" fill="none" id="id19" stroke="none" /><text fill="#e1ed5e" style="font-size:6.75px; font-family:Arial;" text-anchor="middle"><textPath startOffset="22.20632615414155" xlink:href="#id19">July</textPath></text><path d="M 91.40352486487194 119.15986991738527 l -14.763951048357322 32.905973332866104 a57.06629079267213,57.06629079267213 0 0,0 -0.8927668042017063,-0.40982545236240575 l 15.328185848326447 -32.646960810169624" fill="red" stroke="none" /><path d="M 91.07499286063937 119.00905698771935 l -15.247227643706657 32.47453079401265 a56.87580105182724,56.87580105182724 0 0,0 -0.8826239552442383,-0.42371313548666967 l 15.803964266951137 -32.20726338202642" fill="red" stroke="none" /><line stroke="#e1ed5e" stroke-width="0.3" x1="58.666819895761336" x2="56.23545636021788" y1="174.27360380694188" y2="178.64263932499728" /><path d="M 58.180547188652646 175.14741091055294 a86.0,86.0 0 0,1 -31.652253787137756,-30.449443065178592" fill="none" id="id20" stroke="none" /><text fill="#e1ed5e" style="font-size:6.75px; font-family:Arial;" text-anchor="middle"><textPath startOffset="22.20632615414155" xlink:href="#id20">August</textPath></text><path d="M 88.54995079064634 117.60387380957326 l -34.350147628061016 52.81162142871978 a84.0,84.0 0 0,0 -1.2053012050401528,-0.7988079156347263 l 35.25412353184113 -52.212515491993734" fill="red" stroke="none" /><path d="M 86.51685102203217 116.09983520530335 l -15.432932194830173 18.428014514813658 a45.03678670472425,45.03678670472425 0 0,0 -0.5900559450716696,-0.5028584773804329 l 15.7478536164789 -18.159631647210276" fill="red" stroke="none" /><line stroke="#e1ed5e" stroke-width="0.3" x1="26.63291911575756" x2="22.317208475507996" y1="142.92168965132927" y2="145.44649492493687" /><path d="M 25.769776987707644 143.4266507060508 a86.0,86.0 0 0,1 -11.730757126820373,-40.83630448921669" fill="none" id="id21" stroke="none" /><text fill="#e1ed5e" style="font-size:6.75px; font-family:Arial;" text-anchor="middle"><textPath startOffset="21.46611528233685" xlink:href="#id21">September</textPath></text><path d="M 79.10278846688536 102.07522291339032 l -35.34319816499862 3.509799120723542 a56.517043041308966,56.517043041308966 0 0,0 -0.08780434983088642,-0.9689136837653798 l 35.39837711110658 -2.900904048409596" fill="red" stroke="none" /><path d="M 79.04373962182676 101.35467743843564 l -42.60328225999919 2.7540078353405733 a63.69220325167441,63.69220325167441 0 0,0 -0.06130723084425539,-1.094681790592443 l 42.64437584173098 -2.0202543284126926" fill="red" stroke="none" /><path d="M 79.0095281055655 100.63252640178507 l -42.49353535701969 1.2804992262050652 a63.51282424641527,63.51282424641527 0 0,0 -0.023523750746988408,-1.0930562624088627 l 42.50928117045168 -0.5488531480060735" fill="red" stroke="none" /><line stroke="#e1ed5e" stroke-width="0.3" x1="15.007084014347285" x2="10.007500721073583" y1="101.09737516637583" y2="101.16192664675087" /><path d="M 14.007167355692545 101.11028546245083 a86.0,86.0 0 0,1 10.666146001902534,-42.60595125391555" fill="none" id="id22" stroke="none" /><text fill="#e1ed5e" style="font-size:6.75px; font-family:Arial;" text-anchor="middle"><textPath startOffset="22.20632615414155" xlink:href="#id22">October</textPath></text><path d="M 79.05617556472873 98.46500227214037 l -40.78900884394173 -2.989474825412233 a61.898413199083045,61.898413199083045 0 0,0 0.0870277428789039,-1.0619588963119988 l 40.731506617243326 3.6911476389320104" fill="red" stroke="none" /><path d="M 79.62865764111835 94.90015583598534 l -40.544120612103434 -10.149978987447204 a62.795308225378726,62.795308225378726 0 0,0 0.2715259203904309,-1.0463001336581357 l 40.3633983598427 10.846375546654203" fill="red" stroke="none" /><line stroke="#e1ed5e" stroke-width="0.3" x1="26.266209847984243" x2="21.928928074336255" y1="57.711370442889674" y2="55.22380399835377" /><path d="M 25.398753493254645 57.213857153982495 a86.0,86.0 0 0,1 29.58750427330803,-30.492523968695096" fill="none" id="id23" stroke="none" /><text fill="#e1ed5e" style="font-size:6.75px; font-family:Arial;" text-anchor="middle"><textPath startOffset="21.46611528233685" xlink:href="#id23">November</textPath></text><line stroke="#e1ed5e" stroke-width="0.3" x1="56.762969772571076" x2="54.21961505331055" y1="26.818313649435495" y2="22.513508569990535" /><path d="M 56.25429882871897 25.957352633546506 a86.0,86.0 0 0,1 42.265352541879196,-11.944610805530505" fill="none" id="id24" stroke="none" /><text fill="#e1ed5e" style="font-size:6.75px; font-family:Arial;" text-anchor="middle"><textPath startOffset="22.20632615414155" xlink:href="#id24">December</textPath></text></svg>